<svg xmlns="http://www.w3.org/2000/svg" xmlns:xlink="http://www.w3.org/1999/xlink" width="500" zoomAndPan="magnify" viewBox="0 0 375 374.999991" height="500" preserveAspectRatio="xMidYMid meet" version="1.0"><defs><g/><clipPath id="1c90e815ce"><path d="M 55 53.902344 L 320 53.902344 L 320 320.835938 L 55 320.835938 Z M 55 53.902344 " clip-rule="nonzero"/></clipPath><clipPath id="9f7f650783"><path d="M 275.148438 201.503906 L 342 201.503906 L 342 229.121094 L 275.148438 229.121094 Z M 275.148438 201.503906 " clip-rule="nonzero"/></clipPath><clipPath id="4874d99e00"><path d="M 325.03125 201.503906 L 275.148438 201.503906 L 275.148438 229.0625 L 325.03125 229.0625 L 341.65625 215.28125 L 325.03125 201.503906 " clip-rule="nonzero"/></clipPath><clipPath id="c392c42708"><path d="M 33 200.769531 L 99.847656 200.769531 L 99.847656 228.386719 L 33 228.386719 Z M 33 200.769531 " clip-rule="nonzero"/></clipPath><clipPath id="0fab58fcb2"><path d="M 49.96875 228.386719 L 99.847656 228.386719 L 99.847656 200.828125 L 49.96875 200.828125 L 33.339844 214.609375 L 49.96875 228.386719 " clip-rule="nonzero"/></clipPath></defs><g clip-path="url(#1c90e815ce)"><path fill="#000000" d="M 302.371094 135.027344 C 299.867188 129.570312 296.230469 123.097656 293.152344 117.902344 C 290.859375 114.027344 287.667969 109.925781 285 106.222656 C 281.714844 101.664062 276.371094 97.140625 272.078125 93.402344 C 261.597656 84.285156 251.597656 77.484375 238.871094 71.804688 C 221.597656 64.15625 205.972656 61.765625 187.28125 60.96875 C 178.835938 60.609375 174.675781 60.066406 166.214844 61.652344 C 157.945312 63.207031 147.890625 65.460938 140.410156 69.289062 C 133.867188 72.640625 126.699219 75.390625 120.472656 79.0625 C 108.5625 86.089844 94.1875 100.128906 85.570312 111 C 76.535156 122.402344 71.792969 131.488281 67.046875 145.183594 C 64.992188 151.09375 63.851562 154.679688 62.707031 160.917969 C 61.59375 166.972656 59.914062 173.621094 59.183594 179.652344 C 58.253906 187.308594 60.695312 199.648438 62.0625 207.335938 C 62.753906 211.222656 63.597656 215.109375 64.625 218.917969 L 64.757812 219.417969 C 68.554688 233.320312 72.464844 242.53125 80.074219 254.808594 C 83.96875 261.089844 88.898438 267.070312 93.5625 272.820312 C 96.527344 276.476562 100.980469 280.3125 104.53125 283.511719 C 111.351562 289.660156 122.746094 296.570312 131.105469 300.40625 C 143.808594 306.230469 155.480469 310.125 169.328125 312.359375 C 178.507812 313.839844 189.042969 313.777344 198.285156 312.878906 C 202.402344 312.492188 205.796875 312.320312 209.9375 311.589844 C 216.875 310.359375 217.527344 311.679688 224.8125 308.347656 C 231.933594 305.085938 238.84375 302.355469 245.75 298.578125 C 255.976562 292.988281 263.707031 288.863281 272.21875 280.621094 C 278.679688 274.371094 282.050781 270.34375 287.234375 262.945312 C 290.152344 258.785156 292.722656 255.480469 295.316406 251.027344 C 299.140625 244.453125 307.261719 230.265625 309.179688 223.460938 C 311.503906 215.222656 312.539062 204.953125 313.125 196.386719 C 313.480469 191.179688 313.277344 185.160156 313.269531 179.859375 C 313.25 166.441406 310.445312 153.558594 305.152344 141.253906 C 304.253906 139.167969 303.316406 137.097656 302.371094 135.027344 M 138.480469 312.125 C 131.242188 309.617188 125.660156 305.734375 119.253906 301.660156 C 112.484375 297.355469 106.003906 292.03125 99.65625 287.085938 C 86.953125 277.183594 77.167969 264.050781 69.445312 250.015625 C 64.253906 240.59375 58.226562 224.324219 56.890625 213.722656 C 56.125 207.589844 55.34375 202.554688 55.679688 196.300781 C 55.941406 191.425781 55.582031 188.523438 55.269531 183.769531 C 54.640625 174.253906 55.019531 164.925781 57.472656 155.675781 C 60.3125 144.960938 64.867188 134.972656 69.710938 125.039062 C 73.628906 117.007812 78.613281 109.757812 84.042969 102.675781 C 91.332031 93.179688 99.003906 86.074219 108.726562 79.144531 C 113.109375 76.023438 117.445312 72.585938 121.816406 69.542969 C 126.703125 66.140625 132.675781 64.449219 138.296875 62.476562 C 147.855469 59.113281 157.378906 57.324219 167.40625 56.132812 C 174.65625 55.273438 180.882812 53.859375 188.265625 53.863281 C 194.738281 53.863281 202.390625 54.523438 208.769531 55.683594 C 214.5 56.75 218.820312 57.667969 224.441406 59.316406 C 230.757812 61.171875 234.929688 62.601562 240.933594 65.386719 C 246.546875 67.988281 250.066406 69.59375 255.304688 73.082031 C 262.007812 77.542969 267.574219 80.933594 273.675781 86.390625 C 285.402344 96.863281 292.183594 104.328125 300.46875 117.816406 C 304.003906 123.566406 307.691406 130.753906 310.273438 136.992188 C 312.667969 142.761719 315.085938 150.566406 316.386719 156.679688 C 317.851562 163.683594 318.820312 171.953125 319.5 179.109375 C 320.117188 185.640625 319.523438 195.535156 318.859375 202.152344 C 318.125 209.429688 315.605469 219.683594 313.625 226.855469 C 310.871094 236.828125 306.308594 248.628906 300.925781 257.460938 C 298.609375 261.257812 294.378906 266.148438 291.390625 269.519531 C 288.484375 272.800781 285.085938 275.421875 282.066406 278.84375 C 278.492188 282.890625 275.601562 285.390625 271.496094 288.820312 C 266.742188 292.785156 263.273438 295.730469 258.007812 299.15625 C 248.949219 305.042969 243.40625 307.734375 233.242188 311.253906 C 217.320312 316.773438 208.839844 319.574219 191.621094 320.167969 C 173.433594 320.796875 155.675781 318.042969 138.480469 312.125 Z M 138.480469 312.125 " fill-opacity="1" fill-rule="nonzero"/></g><path fill="#000000" d="M 156.273438 149.640625 C 156.273438 149.640625 134.757812 132.386719 121.015625 129.277344 C 121.015625 129.277344 128.460938 140.726562 145.394531 155.367188 C 145.394531 155.367188 136.378906 142.375 137.730469 141.597656 C 139.082031 140.820312 156.273438 149.640625 156.273438 149.640625 M 216.242188 203.722656 L 250.398438 236.554688 C 251.300781 234.21875 251.3125 232.679688 251.269531 232.238281 C 251.234375 231.808594 235.796875 216.472656 219.519531 200.402344 C 218.425781 201.511719 217.335938 202.617188 216.242188 203.722656 Z M 191.265625 229.140625 C 207.25 245.320312 222.4375 260.59375 222.863281 260.632812 C 223.304688 260.675781 226.511719 262.015625 236.609375 253.191406 C 236.609375 253.191406 231.863281 258.75 225.769531 261.820312 C 225.769531 261.820312 228.242188 266.613281 231.804688 265.4375 C 238.070312 263.371094 253.929688 247.359375 256.078125 241.171875 C 257.304688 237.632812 252.457031 235.140625 252.457031 235.140625 C 249.386719 241.234375 243.828125 245.976562 243.828125 245.976562 L 245.238281 243.828125 L 210.945312 209.105469 C 204.382812 215.785156 197.835938 222.480469 191.265625 229.140625 Z M 118.335938 127.742188 C 114.6875 132.328125 129.890625 158.941406 140.335938 167.910156 C 140.335938 167.910156 143.441406 166.355469 147.984375 162.554688 C 147.984375 162.554688 145.265625 165.351562 140.761719 169.035156 L 147.839844 178.441406 L 151.65625 176.199219 L 148.515625 179.523438 C 148.515625 179.523438 153.40625 190.707031 154.222656 191.527344 L 154.582031 191.890625 C 161.230469 185.339844 167.910156 178.8125 174.574219 172.269531 L 174.070312 171.765625 L 166.234375 165.433594 L 169.875 162.332031 L 178.652344 167.59375 L 178.996094 167.925781 C 180.246094 166.6875 181.5 165.453125 182.746094 164.21875 L 182.140625 163.621094 C 181.320312 162.804688 170.132812 157.914062 170.132812 157.914062 L 167.003906 160.265625 L 169.050781 157.238281 L 159.640625 150.167969 C 155.957031 154.664062 153.15625 157.382812 153.15625 157.382812 C 156.960938 152.84375 158.515625 149.738281 158.515625 149.738281 C 149.542969 139.292969 122.921875 124.097656 118.335938 127.742188 Z M 118.335938 127.742188 " fill-opacity="1" fill-rule="evenodd"/><path fill="#000000" d="M 217.78125 149.640625 C 217.78125 149.640625 239.300781 132.386719 253.042969 129.277344 C 253.042969 129.277344 245.597656 140.726562 228.664062 155.367188 C 228.664062 155.367188 237.675781 142.375 236.328125 141.597656 C 234.976562 140.820312 217.78125 149.640625 217.78125 149.640625 M 255.722656 127.742188 C 259.371094 132.328125 244.167969 158.941406 233.722656 167.910156 C 233.722656 167.910156 230.613281 166.355469 226.074219 162.554688 C 226.074219 162.554688 228.792969 165.351562 233.292969 169.035156 L 226.214844 178.441406 L 222.402344 176.199219 L 225.542969 179.523438 C 225.542969 179.523438 220.65625 190.707031 219.835938 191.527344 C 219.019531 192.34375 152.09375 260.550781 151.195312 260.632812 C 150.75 260.675781 147.546875 262.015625 137.449219 253.191406 C 137.449219 253.191406 142.195312 258.75 148.289062 261.816406 C 148.289062 261.816406 145.816406 266.613281 142.253906 265.4375 C 135.988281 263.371094 120.128906 247.359375 117.980469 241.171875 C 116.753906 237.632812 121.601562 235.140625 121.601562 235.140625 C 124.667969 241.234375 130.234375 245.976562 130.234375 245.976562 L 128.820312 243.828125 L 199.984375 171.761719 L 207.820312 165.433594 L 204.183594 162.332031 L 195.402344 167.59375 L 123.65625 236.554688 C 122.757812 234.21875 122.746094 232.679688 122.785156 232.238281 C 122.867188 231.335938 191.101562 164.4375 191.917969 163.621094 C 192.738281 162.800781 203.925781 157.914062 203.925781 157.914062 L 207.054688 160.265625 L 205.007812 157.238281 L 214.417969 150.164062 C 218.101562 154.664062 220.898438 157.382812 220.898438 157.382812 C 217.097656 152.84375 215.542969 149.734375 215.542969 149.734375 C 224.515625 139.292969 251.136719 124.097656 255.722656 127.742188 Z M 255.722656 127.742188 " fill-opacity="1" fill-rule="evenodd"/><path fill="#000000" d="M 113.027344 160.75 C 114.367188 157.625 116.007812 154.882812 117.316406 151.628906 C 119.769531 155.785156 121.34375 159.15625 124.289062 163.148438 C 124.9375 164.03125 124.726562 163.507812 124.421875 164.78125 C 122.792969 171.644531 120.871094 176.625 120.222656 183.890625 C 127.007812 183.777344 133.890625 183.835938 140.6875 183.835938 C 141.414062 185.519531 142.433594 187.921875 143.539062 190.289062 C 135.734375 190.285156 127.910156 190.304688 120.109375 190.273438 C 120.605469 197.800781 123.21875 206.394531 126.066406 213.371094 C 127.078125 215.847656 127.417969 214.710938 125.0625 216.832031 C 122.238281 219.378906 120.226562 221.667969 117.722656 224.433594 C 112.75 213.726562 110.132812 206.773438 109.160156 194.855469 C 109.039062 193.34375 108.910156 191.835938 108.800781 190.328125 C 104.476562 190.269531 102.078125 189.347656 98.148438 188.867188 C 95.738281 188.578125 96.234375 189.441406 96.238281 186.667969 C 96.238281 185.816406 96.257812 184.964844 96.265625 184.117188 C 100.402344 184.066406 104.515625 183.835938 108.667969 183.816406 C 109.257812 177.261719 110.570312 166.710938 113.027344 160.75 M 162.320312 261.554688 C 165.550781 258.226562 169.292969 256.0625 172.628906 252.589844 C 173.339844 251.847656 173.046875 252.191406 174.101562 252.417969 C 177.425781 253.101562 180.515625 253.277344 183.875 253.578125 C 183.738281 249.554688 183.800781 245.375 183.800781 241.339844 L 183.800781 240.777344 L 187.027344 237.511719 L 190.257812 240.777344 C 190.253906 245.125 190.191406 249.511719 190.300781 253.855469 C 194.1875 253.703125 197.105469 253.210938 200.832031 252.109375 C 204.171875 255.773438 207.503906 258.347656 210.980469 261.691406 C 211.804688 262.484375 211.085938 262.257812 209.414062 262.707031 C 202.996094 264.382812 196.878906 264.910156 190.304688 265.417969 C 190.214844 269.613281 189.773438 272.683594 189.351562 276.761719 C 189.179688 278.414062 189.625 278.011719 187.269531 278.152344 C 186.441406 278.203125 185.679688 278.210938 184.851562 278.199219 C 184.683594 274.03125 183.824219 270.753906 183.960938 266.296875 C 183.992188 265.328125 184.070312 265.753906 182.335938 265.675781 C 175.476562 265.382812 168.765625 263.871094 162.320312 261.554688 Z M 265.878906 190.28125 C 265.296875 201.988281 262.238281 209.167969 258.097656 219.847656 C 257.503906 221.382812 256.855469 222.839844 256.191406 224.34375 C 253.136719 221.042969 251.222656 218.273438 247.730469 215.296875 C 252.28125 207.390625 253.171875 199.460938 253.511719 190.503906 C 248.472656 190.367188 243.449219 190.289062 238.410156 190.289062 C 235.78125 190.289062 233.152344 190.289062 230.523438 190.289062 C 231.628906 187.921875 232.644531 185.519531 233.371094 183.835938 C 240.011719 183.832031 246.601562 183.738281 253.238281 184.074219 C 252.773438 179.539062 252.164062 175.042969 251.558594 170.53125 C 251.21875 168.011719 250.941406 166.4375 249.914062 164.089844 C 253.15625 160.570312 254.542969 156.488281 256.808594 152.335938 C 257.632812 150.824219 257.246094 150.753906 258.113281 152.796875 C 259.820312 156.828125 260.636719 160.960938 262.320312 165.160156 C 264.964844 171.972656 265.695312 176.589844 265.957031 183.851562 C 270.648438 183.800781 273.75 183.835938 278.472656 184.410156 C 278.730469 186.472656 278.757812 187.683594 278.53125 189.753906 C 274.234375 190.1875 271.277344 190.292969 267 190.28125 Z M 190.257812 146.515625 C 194.089844 146.816406 197.777344 147.652344 201.238281 148.941406 L 199.859375 149.980469 C 198 150.785156 195.15625 151.980469 192.445312 153.269531 C 191.722656 153.15625 190.996094 153.0625 190.257812 152.996094 L 190.257812 154.351562 C 189.039062 154.984375 187.921875 155.613281 187.03125 156.214844 C 186.144531 155.617188 185.023438 154.984375 183.800781 154.355469 L 183.800781 152.996094 C 183.0625 153.0625 182.332031 153.15625 181.609375 153.269531 C 178.902344 151.984375 176.054688 150.785156 174.203125 149.984375 L 172.820312 148.945312 C 176.28125 147.652344 179.96875 146.816406 183.800781 146.515625 C 183.800781 139.53125 183.632812 132.261719 183.808594 125.316406 C 183.847656 123.683594 183.957031 122.105469 184.089844 120.480469 C 179.941406 121.109375 175.96875 121.46875 171.832031 121.992188 L 171.289062 122.0625 C 164.191406 122.96875 157.300781 126.910156 151.449219 130.859375 C 150.257812 131.664062 150.210938 130.914062 148.773438 129.960938 C 145.703125 127.933594 142.117188 126.996094 138.824219 125.335938 C 146.621094 118.785156 153.277344 115.558594 162.984375 112.699219 C 171.699219 110.097656 174.363281 108.726562 183.789062 108.589844 C 185.222656 108.609375 184.53125 108.445312 184.628906 106.027344 C 184.753906 102.910156 185.328125 99.96875 185.195312 96.835938 C 186.605469 96.902344 187.890625 96.925781 189.304688 96.878906 C 189.179688 100.753906 189.734375 104.765625 189.816406 108.691406 C 193.898438 109.035156 197.625 109.308594 201.675781 110.050781 L 202.289062 110.164062 C 204.144531 110.511719 205.988281 110.886719 207.835938 111.265625 C 215.527344 112.917969 217.953125 114.695312 224.441406 118.597656 C 227.863281 120.660156 231.027344 121.808594 234.515625 124.136719 C 235.378906 124.714844 235.074219 124.460938 233.429688 125.226562 C 229.949219 126.839844 226.527344 127.875 223.589844 130.445312 C 222.847656 131.09375 223.359375 130.921875 222.203125 129.96875 C 218.113281 126.597656 212.757812 125.410156 207.761719 123.8125 C 206.964844 123.558594 206.167969 123.316406 205.371094 123.074219 C 200.566406 121.667969 195.039062 120.964844 190.050781 120.367188 C 190.433594 128.957031 190.257812 137.890625 190.257812 146.515625 Z M 190.257812 146.515625 " fill-opacity="1" fill-rule="nonzero"/><g fill="#000000" fill-opacity="0.2902"><g transform="translate(119.795833, 125.545993)"><g><path d="M 2.128906 -2.050781 L 10.476562 -10.074219 C 14.078125 -13.535156 14.609375 -17.855469 11.730469 -20.851562 C 9.902344 -22.753906 7.449219 -23.324219 5.070312 -22.449219 C 5.65625 -24.527344 5.101562 -26.679688 3.492188 -28.355469 C 0.6875 -31.269531 -3.402344 -30.902344 -7.003906 -27.4375 L -14.941406 -19.804688 Z M 3.039062 -9.074219 L -1.058594 -13.335938 L 2.695312 -16.945312 C 4.292969 -18.480469 5.964844 -18.574219 7.257812 -17.230469 C 8.550781 -15.886719 8.390625 -14.222656 6.792969 -12.683594 Z M -4.007812 -16.40625 L -7.886719 -20.4375 L -4.539062 -23.65625 C -2.992188 -25.144531 -1.445312 -25.265625 -0.203125 -23.972656 C 1.042969 -22.675781 0.886719 -21.113281 -0.660156 -19.625 Z M -4.007812 -16.40625 "/></g></g></g><g fill="#000000" fill-opacity="0.2902"><g transform="translate(136.74231, 109.70677)"><g><path d="M -1.585938 -7.070312 L 8.179688 -13.019531 L 6.09375 -16.445312 L -3.675781 -10.496094 Z M -1.585938 -7.070312 "/></g></g></g><g fill="#000000" fill-opacity="0.2902"><g transform="translate(149.475101, 101.382817)"><g><path d="M 8.378906 -2.898438 L 13.667969 -4.730469 L 7.328125 -23.054688 L 14.710938 -25.609375 L 12.996094 -30.5625 L -7.058594 -23.625 L -5.34375 -18.667969 L 2.039062 -21.222656 Z M 8.378906 -2.898438 "/></g></g></g><g fill="#000000" fill-opacity="0.2902"><g transform="translate(169.823398, 93.658488)"><g><path d="M 14.644531 -0.277344 C 22.339844 -0.683594 27.507812 -6.242188 27.113281 -13.761719 C 26.71875 -21.28125 20.992188 -26.265625 13.296875 -25.863281 C 5.601562 -25.457031 0.464844 -19.898438 0.863281 -12.378906 C 1.257812 -4.859375 6.949219 0.128906 14.644531 -0.277344 Z M 6.554688 -12.679688 C 6.320312 -17.105469 9.21875 -20.324219 13.574219 -20.554688 C 17.96875 -20.785156 21.152344 -17.886719 21.386719 -13.460938 C 21.617188 -9.03125 18.757812 -5.816406 14.363281 -5.585938 C 10.007812 -5.355469 6.789062 -8.25 6.554688 -12.679688 Z M 6.554688 -12.679688 "/></g></g></g><g fill="#000000" fill-opacity="0.2902"><g transform="translate(196.84376, 90.979018)"><g><path d="M 7.886719 2.488281 L 13.15625 4.152344 L 23.289062 -9.367188 L 23.828125 7.519531 L 29.0625 9.171875 L 44.058594 -11.925781 L 38.421875 -13.707031 L 33.917969 -7.265625 L 28.933594 -0.242188 L 28.683594 -8.917969 L 28.421875 -16.863281 L 23.355469 -18.460938 L 18.582031 -12.105469 L 13.460938 -5.234375 L 13.414062 -13.738281 L 13.421875 -21.59375 L 7.75 -23.386719 Z M 7.886719 2.488281 "/></g></g></g><g fill="#000000" fill-opacity="0.2902"><g transform="translate(231.334317, 102.493587)"><g><path d="M 2.347656 1.796875 L 6.765625 5.171875 L 15.933594 -6.820312 L 15.402344 11.777344 L 19.175781 14.664062 L 34.140625 -4.902344 L 29.722656 -8.28125 L 20.617188 3.628906 L 21.085938 -14.886719 L 17.3125 -17.773438 Z M 2.347656 1.796875 "/></g></g></g><g fill="#000000" fill-opacity="0.2902"><g transform="translate(251.698655, 119.115807)"><g/></g></g><g fill="#000000" fill-opacity="1"><g transform="translate(117.988179, 126.276327)"><g><path d="M 2.128906 -2.050781 L 10.476562 -10.074219 C 14.078125 -13.535156 14.609375 -17.855469 11.730469 -20.851562 C 9.902344 -22.753906 7.449219 -23.324219 5.070312 -22.449219 C 5.65625 -24.527344 5.101562 -26.679688 3.492188 -28.355469 C 0.6875 -31.269531 -3.402344 -30.902344 -7.003906 -27.4375 L -14.941406 -19.804688 Z M 3.039062 -9.074219 L -1.058594 -13.335938 L 2.695312 -16.945312 C 4.292969 -18.480469 5.964844 -18.574219 7.257812 -17.230469 C 8.550781 -15.886719 8.390625 -14.222656 6.792969 -12.683594 Z M -4.007812 -16.40625 L -7.886719 -20.4375 L -4.539062 -23.65625 C -2.992188 -25.144531 -1.445312 -25.265625 -0.203125 -23.972656 C 1.042969 -22.675781 0.886719 -21.113281 -0.660156 -19.625 Z M -4.007812 -16.40625 "/></g></g></g><g fill="#000000" fill-opacity="1"><g transform="translate(134.934657, 110.437112)"><g><path d="M -1.585938 -7.070312 L 8.179688 -13.019531 L 6.09375 -16.445312 L -3.675781 -10.496094 Z M -1.585938 -7.070312 "/></g></g></g><g fill="#000000" fill-opacity="1"><g transform="translate(147.667455, 102.113152)"><g><path d="M 8.378906 -2.898438 L 13.667969 -4.730469 L 7.328125 -23.054688 L 14.710938 -25.609375 L 12.996094 -30.5625 L -7.058594 -23.625 L -5.34375 -18.667969 L 2.039062 -21.222656 Z M 8.378906 -2.898438 "/></g></g></g><g fill="#000000" fill-opacity="1"><g transform="translate(168.015735, 94.388828)"><g><path d="M 14.644531 -0.277344 C 22.339844 -0.683594 27.507812 -6.242188 27.113281 -13.761719 C 26.71875 -21.28125 20.992188 -26.265625 13.296875 -25.863281 C 5.601562 -25.457031 0.464844 -19.898438 0.863281 -12.378906 C 1.257812 -4.859375 6.949219 0.128906 14.644531 -0.277344 Z M 6.554688 -12.679688 C 6.320312 -17.105469 9.21875 -20.324219 13.574219 -20.554688 C 17.96875 -20.785156 21.152344 -17.886719 21.386719 -13.460938 C 21.617188 -9.03125 18.757812 -5.816406 14.363281 -5.585938 C 10.007812 -5.355469 6.789062 -8.25 6.554688 -12.679688 Z M 6.554688 -12.679688 "/></g></g></g><g fill="#000000" fill-opacity="1"><g transform="translate(195.036097, 91.70936)"><g><path d="M 7.886719 2.488281 L 13.15625 4.152344 L 23.289062 -9.367188 L 23.828125 7.519531 L 29.0625 9.171875 L 44.058594 -11.925781 L 38.421875 -13.707031 L 33.917969 -7.265625 L 28.933594 -0.242188 L 28.683594 -8.917969 L 28.421875 -16.863281 L 23.355469 -18.460938 L 18.582031 -12.105469 L 13.460938 -5.234375 L 13.414062 -13.738281 L 13.421875 -21.59375 L 7.75 -23.386719 Z M 7.886719 2.488281 "/></g></g></g><g fill="#000000" fill-opacity="1"><g transform="translate(229.526671, 103.223921)"><g><path d="M 2.347656 1.796875 L 6.765625 5.171875 L 15.933594 -6.820312 L 15.402344 11.777344 L 19.175781 14.664062 L 34.140625 -4.902344 L 29.722656 -8.28125 L 20.617188 3.628906 L 21.085938 -14.886719 L 17.3125 -17.773438 Z M 2.347656 1.796875 "/></g></g></g><g fill="#000000" fill-opacity="1"><g transform="translate(249.890979, 119.846141)"><g/></g></g><g fill="#000000" fill-opacity="1"><g transform="translate(112.543878, 277.188465)"><g><path d="M 10.921875 -3.40625 L 6.625 -5.8125 L 5.234375 -3.34375 L 9.125 -1.171875 L 8.421875 0.109375 L 4.53125 -2.0625 L 2.5625 1.4375 L 1.125 0.625 L 5.90625 -7.921875 L 11.65625 -4.703125 Z M 10.921875 -3.40625 "/></g></g></g><g fill="#000000" fill-opacity="1"><g transform="translate(130.270225, 286.148336)"><g><path d="M 2.71875 1.109375 L 1.1875 0.484375 L 4.890625 -8.578125 L 6.421875 -7.953125 Z M 2.71875 1.109375 "/></g></g></g><g fill="#000000" fill-opacity="1"><g transform="translate(145.377235, 291.687425)"><g><path d="M 7.25 1.90625 L 6.28125 -1.421875 C 6.1875 -1.429688 6.039062 -1.460938 5.84375 -1.515625 L 3.59375 -2.109375 L 2.84375 0.75 L 1.234375 0.328125 L 3.734375 -9.140625 L 7.59375 -8.125 C 8.800781 -7.8125 9.664062 -7.285156 10.1875 -6.546875 C 10.707031 -5.804688 10.832031 -4.921875 10.5625 -3.890625 C 10.363281 -3.140625 10.023438 -2.546875 9.546875 -2.109375 C 9.066406 -1.671875 8.476562 -1.414062 7.78125 -1.34375 L 9.0625 2.390625 Z M 3.96875 -3.546875 L 6.21875 -2.953125 C 7.75 -2.554688 8.679688 -2.988281 9.015625 -4.25 C 9.335938 -5.476562 8.734375 -6.289062 7.203125 -6.6875 L 4.953125 -7.28125 Z M 3.96875 -3.546875 "/></g></g></g><g fill="#000000" fill-opacity="1"><g transform="translate(166.927803, 296.410428)"><g><path d="M 9.140625 -7.359375 L 3.828125 -7.9375 L 3.546875 -5.3125 L 8.3125 -4.796875 L 8.140625 -3.3125 L 3.375 -3.828125 L 3.078125 -1.140625 L 8.5625 -0.546875 L 8.40625 0.921875 L 1.28125 0.140625 L 2.359375 -9.59375 L 9.3125 -8.828125 Z M 9.140625 -7.359375 "/></g></g></g><g fill="#000000" fill-opacity="1"><g transform="translate(188.008529, 297.878871)"><g><path d="M 7.515625 -2.515625 L 2.578125 -2.328125 L 1.734375 -0.0625 L 0.015625 0 L 3.96875 -9.96875 L 5.65625 -10.03125 L 10.296875 -0.40625 L 8.546875 -0.328125 Z M 6.84375 -3.953125 L 4.828125 -8.234375 L 3.15625 -3.8125 Z M 6.84375 -3.953125 "/></g></g></g><g fill="#000000" fill-opacity="1"><g transform="translate(210.230987, 296.094563)"><g><path d="M 7.359375 -1.421875 L 5.046875 -4 C 4.960938 -3.976562 4.816406 -3.945312 4.609375 -3.90625 L 2.328125 -3.46875 L 2.890625 -0.5625 L 1.265625 -0.25 L -0.59375 -9.875 L 3.3125 -10.625 C 4.539062 -10.863281 5.546875 -10.757812 6.328125 -10.3125 C 7.117188 -9.875 7.617188 -9.128906 7.828125 -8.078125 C 7.972656 -7.316406 7.925781 -6.632812 7.6875 -6.03125 C 7.445312 -5.4375 7.03125 -4.953125 6.4375 -4.578125 L 9.203125 -1.78125 Z M 2.046875 -4.921875 L 4.328125 -5.359375 C 5.878906 -5.660156 6.53125 -6.457031 6.28125 -7.75 C 6.039062 -8.988281 5.144531 -9.457031 3.59375 -9.15625 L 1.3125 -8.71875 Z M 2.046875 -4.921875 "/></g></g></g><g fill="#000000" fill-opacity="1"><g transform="translate(231.788816, 291.058517)"><g><path d="M 10.921875 -4.015625 L 9.5 -3.484375 L 6.953125 -10.359375 L 6.234375 -3.375 L 5.234375 -3 L 0.140625 -7.859375 L 2.671875 -0.984375 L 1.203125 -0.4375 L -2.171875 -9.640625 L -0.328125 -10.328125 L 4.953125 -5.328125 L 5.734375 -12.546875 L 7.546875 -13.21875 Z M 10.921875 -4.015625 "/></g></g></g><g fill="#000000" fill-opacity="1"><g transform="translate(254.783186, 281.439492)"><g><path d="M -0.859375 -10.828125 C 0.242188 -11.429688 1.40625 -11.6875 2.625 -11.59375 L 2.71875 -10 C 1.5625 -10.039062 0.582031 -9.835938 -0.21875 -9.390625 C -0.644531 -9.148438 -0.9375 -8.882812 -1.09375 -8.59375 C -1.257812 -8.300781 -1.265625 -8.007812 -1.109375 -7.71875 C -0.953125 -7.4375 -0.707031 -7.257812 -0.375 -7.1875 C -0.0390625 -7.113281 0.320312 -7.125 0.71875 -7.21875 C 1.125 -7.320312 1.566406 -7.414062 2.046875 -7.5 C 2.523438 -7.582031 2.976562 -7.632812 3.40625 -7.65625 C 3.84375 -7.6875 4.265625 -7.59375 4.671875 -7.375 C 5.085938 -7.164062 5.429688 -6.820312 5.703125 -6.34375 C 6.117188 -5.59375 6.148438 -4.828125 5.796875 -4.046875 C 5.441406 -3.265625 4.796875 -2.609375 3.859375 -2.078125 C 3.203125 -1.710938 2.5 -1.484375 1.75 -1.390625 C 1 -1.296875 0.273438 -1.328125 -0.421875 -1.484375 L -0.484375 -3.078125 C 0.160156 -2.910156 0.800781 -2.863281 1.4375 -2.9375 C 2.082031 -3.019531 2.632812 -3.191406 3.09375 -3.453125 C 3.601562 -3.734375 3.953125 -4.039062 4.140625 -4.375 C 4.328125 -4.71875 4.328125 -5.050781 4.140625 -5.375 C 3.984375 -5.664062 3.734375 -5.847656 3.390625 -5.921875 C 3.046875 -6.003906 2.675781 -5.992188 2.28125 -5.890625 C 1.882812 -5.796875 1.445312 -5.703125 0.96875 -5.609375 C 0.5 -5.515625 0.0507812 -5.453125 -0.375 -5.421875 C -0.8125 -5.390625 -1.234375 -5.472656 -1.640625 -5.671875 C -2.054688 -5.878906 -2.394531 -6.21875 -2.65625 -6.6875 C -3.0625 -7.414062 -3.097656 -8.15625 -2.765625 -8.90625 C -2.429688 -9.65625 -1.796875 -10.296875 -0.859375 -10.828125 Z M -0.859375 -10.828125 "/></g></g></g><g clip-path="url(#9f7f650783)"><g clip-path="url(#4874d99e00)"><path fill="#000000" d="M 275.148438 201.503906 L 341.429688 201.503906 L 341.429688 229.121094 L 275.148438 229.121094 Z M 275.148438 201.503906 " fill-opacity="1" fill-rule="nonzero"/></g></g><g clip-path="url(#c392c42708)"><g clip-path="url(#0fab58fcb2)"><path fill="#000000" d="M 99.847656 228.386719 L 33.566406 228.386719 L 33.566406 200.769531 L 99.847656 200.769531 Z M 99.847656 228.386719 " fill-opacity="1" fill-rule="nonzero"/></g></g><g fill="#ffffff" fill-opacity="1"><g transform="translate(288.479664, 217.94938)"><g><path d="M 2.875 -7.03125 C 3.539062 -7.03125 4.078125 -6.867188 4.484375 -6.546875 C 4.890625 -6.234375 5.09375 -5.8125 5.09375 -5.28125 C 5.09375 -4.664062 4.664062 -3.898438 3.8125 -2.984375 L 2 -1.0625 L 5.40625 -1.0625 L 5.40625 0 L 0.453125 0 L 0.453125 -0.859375 L 3.015625 -3.625 C 3.585938 -4.195312 3.875 -4.691406 3.875 -5.109375 C 3.875 -5.378906 3.769531 -5.59375 3.5625 -5.75 C 3.351562 -5.914062 3.066406 -6 2.703125 -6 C 2.066406 -6 1.429688 -5.707031 0.796875 -5.125 L 0.328125 -6.03125 C 1.148438 -6.695312 2 -7.03125 2.875 -7.03125 Z M 2.875 -7.03125 "/></g></g></g><g fill="#ffffff" fill-opacity="1"><g transform="translate(296.084655, 217.94938)"><g><path d="M 3.453125 -7.015625 C 4.398438 -7.015625 5.128906 -6.707031 5.640625 -6.09375 C 6.148438 -5.488281 6.40625 -4.617188 6.40625 -3.484375 C 6.40625 -2.359375 6.148438 -1.488281 5.640625 -0.875 C 5.128906 -0.269531 4.398438 0.03125 3.453125 0.03125 C 2.492188 0.03125 1.757812 -0.269531 1.25 -0.875 C 0.738281 -1.488281 0.484375 -2.359375 0.484375 -3.484375 C 0.484375 -4.617188 0.738281 -5.488281 1.25 -6.09375 C 1.757812 -6.707031 2.492188 -7.015625 3.453125 -7.015625 Z M 3.453125 -6.078125 C 2.273438 -6.078125 1.6875 -5.210938 1.6875 -3.484375 C 1.6875 -1.753906 2.273438 -0.890625 3.453125 -0.890625 C 4.617188 -0.890625 5.203125 -1.753906 5.203125 -3.484375 C 5.203125 -5.210938 4.617188 -6.078125 3.453125 -6.078125 Z M 3.453125 -6.078125 "/></g></g></g><g fill="#ffffff" fill-opacity="1"><g transform="translate(304.716271, 217.94938)"><g><path d="M 2.875 -7.03125 C 3.539062 -7.03125 4.078125 -6.867188 4.484375 -6.546875 C 4.890625 -6.234375 5.09375 -5.8125 5.09375 -5.28125 C 5.09375 -4.664062 4.664062 -3.898438 3.8125 -2.984375 L 2 -1.0625 L 5.40625 -1.0625 L 5.40625 0 L 0.453125 0 L 0.453125 -0.859375 L 3.015625 -3.625 C 3.585938 -4.195312 3.875 -4.691406 3.875 -5.109375 C 3.875 -5.378906 3.769531 -5.59375 3.5625 -5.75 C 3.351562 -5.914062 3.066406 -6 2.703125 -6 C 2.066406 -6 1.429688 -5.707031 0.796875 -5.125 L 0.328125 -6.03125 C 1.148438 -6.695312 2 -7.03125 2.875 -7.03125 Z M 2.875 -7.03125 "/></g></g></g><g fill="#ffffff" fill-opacity="1"><g transform="translate(312.321261, 217.94938)"><g><path d="M 2.609375 -4.078125 L 2.96875 -4.03125 C 3.570312 -3.976562 4.050781 -3.785156 4.40625 -3.453125 C 4.757812 -3.128906 4.9375 -2.695312 4.9375 -2.15625 C 4.9375 -1.5 4.703125 -0.96875 4.234375 -0.5625 C 3.773438 -0.15625 3.160156 0.046875 2.390625 0.046875 C 1.960938 0.046875 1.535156 -0.0195312 1.109375 -0.15625 C 0.691406 -0.289062 0.335938 -0.472656 0.046875 -0.703125 L 0.53125 -1.671875 C 1.050781 -1.179688 1.644531 -0.9375 2.3125 -0.9375 C 2.769531 -0.9375 3.128906 -1.039062 3.390625 -1.25 C 3.648438 -1.46875 3.78125 -1.765625 3.78125 -2.140625 C 3.78125 -2.503906 3.648438 -2.785156 3.390625 -2.984375 C 3.140625 -3.179688 2.773438 -3.28125 2.296875 -3.28125 L 1.328125 -3.28125 L 1.328125 -3.96875 L 3.15625 -5.921875 L 0.359375 -5.921875 L 0.359375 -6.96875 L 4.609375 -6.96875 L 4.609375 -6.234375 Z M 2.609375 -4.078125 "/></g></g></g><g fill="#ffffff" fill-opacity="1"><g transform="translate(57.140451, 217.305655)"><g><path d="M 5.90625 -5.921875 L 2.09375 -5.921875 L 2.09375 -4.03125 L 5.5 -4.03125 L 5.5 -2.984375 L 2.09375 -2.984375 L 2.09375 -1.0625 L 6.015625 -1.0625 L 6.015625 0 L 0.921875 0 L 0.921875 -6.984375 L 5.90625 -6.984375 Z M 5.90625 -5.921875 "/></g></g></g><g fill="#ffffff" fill-opacity="1"><g transform="translate(65.423217, 217.305655)"><g><path d="M 3.203125 -7.03125 C 4.109375 -7.03125 4.925781 -6.789062 5.65625 -6.3125 L 5.15625 -5.28125 C 4.445312 -5.707031 3.769531 -5.921875 3.125 -5.921875 C 2.769531 -5.921875 2.488281 -5.859375 2.28125 -5.734375 C 2.082031 -5.609375 1.984375 -5.425781 1.984375 -5.1875 C 1.984375 -4.957031 2.078125 -4.757812 2.265625 -4.59375 C 2.453125 -4.4375 2.679688 -4.316406 2.953125 -4.234375 C 3.234375 -4.160156 3.535156 -4.066406 3.859375 -3.953125 C 4.191406 -3.835938 4.492188 -3.710938 4.765625 -3.578125 C 5.046875 -3.453125 5.273438 -3.25 5.453125 -2.96875 C 5.640625 -2.695312 5.734375 -2.363281 5.734375 -1.96875 C 5.734375 -1.363281 5.488281 -0.875 5 -0.5 C 4.519531 -0.132812 3.890625 0.046875 3.109375 0.046875 C 2.578125 0.046875 2.0625 -0.0507812 1.5625 -0.25 C 1.0625 -0.457031 0.628906 -0.726562 0.265625 -1.0625 L 0.765625 -2.078125 C 1.117188 -1.753906 1.503906 -1.503906 1.921875 -1.328125 C 2.347656 -1.148438 2.75 -1.0625 3.125 -1.0625 C 3.539062 -1.0625 3.863281 -1.132812 4.09375 -1.28125 C 4.320312 -1.4375 4.4375 -1.644531 4.4375 -1.90625 C 4.4375 -2.144531 4.34375 -2.347656 4.15625 -2.515625 C 3.96875 -2.679688 3.734375 -2.800781 3.453125 -2.875 C 3.179688 -2.945312 2.878906 -3.035156 2.546875 -3.140625 C 2.222656 -3.253906 1.921875 -3.375 1.640625 -3.5 C 1.359375 -3.625 1.125 -3.820312 0.9375 -4.09375 C 0.757812 -4.363281 0.671875 -4.691406 0.671875 -5.078125 C 0.671875 -5.671875 0.898438 -6.144531 1.359375 -6.5 C 1.828125 -6.851562 2.441406 -7.03125 3.203125 -7.03125 Z M 3.203125 -7.03125 "/></g></g></g><g fill="#ffffff" fill-opacity="1"><g transform="translate(73.367096, 217.305655)"><g><path d="M 5.6875 -5.921875 L 3.46875 -5.921875 L 3.46875 0 L 2.296875 0 L 2.296875 -5.921875 L 0.09375 -5.921875 L 0.09375 -6.984375 L 5.6875 -6.984375 Z M 5.6875 -5.921875 "/></g></g></g><g fill="#ffffff" fill-opacity="1"><g transform="translate(80.88238, 217.305655)"><g><path d="M 0.921875 -6.984375 L 3.78125 -6.984375 C 4.820312 -6.984375 5.679688 -6.648438 6.359375 -5.984375 C 7.046875 -5.328125 7.390625 -4.492188 7.390625 -3.484375 C 7.390625 -2.472656 7.046875 -1.640625 6.359375 -0.984375 C 5.671875 -0.328125 4.800781 0 3.75 0 L 0.921875 0 Z M 2.09375 -5.921875 L 2.09375 -1.0625 L 3.8125 -1.0625 C 4.488281 -1.0625 5.054688 -1.285156 5.515625 -1.734375 C 5.972656 -2.191406 6.203125 -2.769531 6.203125 -3.46875 C 6.203125 -4.175781 5.96875 -4.757812 5.5 -5.21875 C 5.03125 -5.6875 4.453125 -5.921875 3.765625 -5.921875 Z M 2.09375 -5.921875 "/></g></g></g></svg>